<?xml version="1.0" encoding="utf-8"?>
<!-- Generator: Adobe Illustrator 15.0.0, SVG Export Plug-In . SVG Version: 6.00 Build 0)  -->
<!DOCTYPE svg PUBLIC "-//W3C//DTD SVG 1.1//EN" "http://www.w3.org/Graphics/SVG/1.1/DTD/svg11.dtd">
<svg version="1.1" id="Layer_1" xmlns="http://www.w3.org/2000/svg" xmlns:xlink="http://www.w3.org/1999/xlink" x="0px" y="0px"
	 width="841.89px" height="595.28px" viewBox="0 0 841.89 595.28" enable-background="new 0 0 841.89 595.28" xml:space="preserve">
<path fill="none" stroke="#272525" stroke-miterlimit="10" d="M550.441,76.002c-16.431-0.802-43.684,4.376-51.097,26.751
	c-5.292,15.973,2.329,46.884,18.837,54.132c29.35,12.887,105.972,9.146,108.123,9.146c2.152,0,7.531,2.817,7.531,2.817
	s4.304-0.646,6.455-2.817s59.233-11.683,85.268-18.916c6.774-1.884,48.541,3.462,52.306,1.291c3.767-2.171,2.205-6.391,2.205-6.391
	s11.654-2.379,12.821-3.425c1.805-1.617,1.203-7.265,1.203-7.265s8.815-2.971,8.815-6.477c0-3.504-11.02-5.384-11.02-5.384
	s-1.397-6.228-3.006-6.739c-7.614-2.426-42.875-2.965-42.875-2.965s7.017-10.783,5.614-16.982
	c-0.703-3.106-6.612,1.348-11.021,3.504c-4.408,2.156-12.825,13.748-18.636,14.017c-5.812,0.269-25.249-5.107-51.298-4.838
	c-13.757,0.142-33.464,1.333-35.667,1.064c-4.347-0.532-29.456-10.513-41.679-15.904C580.958,85.168,550.441,76.002,550.441,76.002z
	"/>
<circle fill="none" stroke="#272525" stroke-miterlimit="10" cx="688.503" cy="122.289" r="3.807"/>
<circle fill="none" stroke="#272525" stroke-miterlimit="10" cx="702.93" cy="124.693" r="3.807"/>
<circle fill="none" stroke="#272525" stroke-miterlimit="10" cx="690.909" cy="136.717" r="3.807"/>
<path fill="none" stroke="#272525" stroke-miterlimit="10" d="M737.148,169.002c16.852-2.668,42.684,4.376,50.097,26.751
	c5.292,15.973-2.329,46.884-18.837,54.132c-29.35,12.887-97.972,27.146-100.123,27.146c-2.152,0-7.531,2.817-7.531,2.817
	s-4.304-0.646-6.455-2.817s-59.233-11.683-85.268-18.916c-6.774-1.884-39.541,5.462-43.306,3.291
	c-3.767-2.171-2.205-6.391-2.205-6.391s-4.654-4.379-5.821-5.425c-1.805-1.617-1.203-7.265-1.203-7.265s-2.815-2.971-2.815-6.477
	c0-3.504,5.02-5.384,5.02-5.384s1.397-6.228,3.006-6.739c7.614-2.426,12.875-2.965,12.875-2.965s0.086-3.428,4.386-6.982
	c2.454-2.029,13.612-1.652,18.021,0.504c4.408,2.156,9.825,6.748,15.636,7.017c5.812,0.269,25.249-5.107,51.298-4.838
	c13.757,0.142,33.464,1.333,35.667,1.064c4.347-0.532,18.117-13.749,37.679-28.904C717,173.333,737.148,169.002,737.148,169.002z"/>
<g>
	
		<rect x="97.606" y="175.17" transform="matrix(0.9988 0.0497 -0.0497 0.9988 11.7051 -5.9679)" fill="none" stroke="#272525" stroke-miterlimit="10" width="56.693" height="114.803"/>
	<g>
		<circle fill="none" stroke="#272525" stroke-miterlimit="10" cx="108.272" cy="302.788" r="4.252"/>
		<circle fill="none" stroke="#272525" stroke-miterlimit="10" cx="136.583" cy="304.195" r="4.252"/>
	</g>
	<g>
		<circle fill="none" stroke="#272525" stroke-miterlimit="10" cx="143.635" cy="162.355" r="4.252"/>
		<circle fill="none" stroke="#272525" stroke-miterlimit="10" cx="115.323" cy="160.948" r="4.252"/>
	</g>
</g>
<path fill="none" stroke="#272525" stroke-miterlimit="10" d="M199.739,396.737c-9.008-6.307-19.753-3.604-21.555-6.304
	c-1.801-2.702-10.786-18.603-7.183-24.006c3.603-5.404,3.161-29.743,3.161-29.743s10.853-6.035,28.868-25.853
	c18.014-19.816,11.764-104.352,7.616-129.244c-4.504-27.022-41.176-36.362-39.374-53.476c0.574-5.449,26.604-0.301,36.69-10.809
	c7.184-7.484,8.087-14.683,5.305-15.61c-2.703-0.9-8.287-1.82-8.287-1.82s10.188-0.883,9.287-4.485
	c-0.287-1.146-7.439-10.103-11.655-12.264c-5.486-2.813-5.385-6.847-7.415-7.396c-5.194-1.404-8.322-6.917-8.322-6.917
	s6.295,0.455,7.664-2.878c1.419-3.456,0.243-6.304-4.206-7.007c-14.958-2.365-27.458-36.615-63.493-39.596
	c-13.702-1.134-43.154,4.114-58.466,25.731c-15.313,21.618,25.139,74.25,24.238,81.456c-0.901,7.206-45.937,48.64-48.639,119.797
	c-2.702,71.158,45.818,164.835,45.818,164.835h45.325v-31.347h5.669v31.347h65.255C206.043,411.149,208.748,403.042,199.739,396.737
	z"/>
<g>
	
		<rect x="292.458" y="175.17" transform="matrix(-0.9988 0.0497 -0.0497 -0.9988 652.7642 448.9257)" fill="none" stroke="#272525" stroke-miterlimit="10" width="56.693" height="114.803"/>
	<g>
		<circle fill="none" stroke="#272525" stroke-miterlimit="10" cx="338.487" cy="302.788" r="4.252"/>
		<circle fill="none" stroke="#272525" stroke-miterlimit="10" cx="310.175" cy="304.195" r="4.252"/>
	</g>
	<g>
		<circle fill="none" stroke="#272525" stroke-miterlimit="10" cx="303.124" cy="162.355" r="4.252"/>
		<circle fill="none" stroke="#272525" stroke-miterlimit="10" cx="331.435" cy="160.948" r="4.252"/>
	</g>
</g>
<path fill="none" stroke="#272525" stroke-miterlimit="10" d="M247.019,396.737c9.008-6.307,19.753-3.604,21.555-6.304
	c1.801-2.702,10.786-18.603,7.183-24.006c-3.603-5.404-3.161-29.743-3.161-29.743s-10.853-6.035-28.868-25.853
	c-18.014-19.816-11.764-104.352-7.616-129.244c4.504-27.022,41.176-36.362,39.374-53.476c-0.574-5.449-26.604-0.301-36.69-10.809
	c-7.184-7.484-8.087-14.683-5.305-15.61c2.703-0.9,8.287-1.82,8.287-1.82s-10.188-0.883-9.287-4.485
	c0.287-1.146,7.439-10.103,11.655-12.264c5.486-2.813,5.385-6.847,7.415-7.396c5.194-1.404,8.322-6.917,8.322-6.917
	s-6.295,0.455-7.664-2.878c-1.419-3.456-0.243-6.304,4.206-7.007c14.958-2.365,27.458-36.615,63.493-39.596
	c13.702-1.134,43.154,4.114,58.466,25.731c15.313,21.618-25.139,74.25-24.238,81.456c0.901,7.206,45.937,48.64,48.639,119.797
	c2.702,71.158-45.818,164.835-45.818,164.835H311.64v-31.347h-5.669v31.347h-65.255
	C240.715,411.149,238.011,403.042,247.019,396.737z"/>
<path fill="none" stroke="#272525" stroke-miterlimit="10" d="M634.821,342.718h-5.52v39.52h-5.669v-39.52h-62.662v39.52h-5.669
	v-39.52h-5.521c-23.482,0-42.52,19.037-42.52,42.52v28.347h170.079v-28.347C677.341,361.755,658.305,342.718,634.821,342.718z"/>
<text transform="matrix(1 0 0 1 425 561)" font-family="'MyriadPro-Regular'" font-size="12">This work is licensed under a Creative Commons Attribution 3.0 Unported License.</text>
<text transform="matrix(1 0 0 1 593.3008 580)" font-family="'MyriadPro-Bold'" font-size="12">Design by Jens Dyvik, www.dyvikdesign.com</text>
</svg>
